<mxfile host="65bd71144e" modified="2020-12-02T07:54:42.975Z" agent="5.0 (Macintosh; Intel Mac OS X 10_16_0) AppleWebKit/537.36 (KHTML, like Gecko) Code/1.51.1 Chrome/83.0.4103.122 Electron/9.3.3 Safari/537.36" etag="RCgyYCQ09eQtE2rsTz_K" version="13.6.5">
    <diagram id="rtps9p1ONk_gTZDP592s" name="Page-1">
        <mxGraphModel dx="1679" dy="1173" grid="1" gridSize="10" guides="1" tooltips="1" connect="1" arrows="1" fold="1" page="1" pageScale="1" pageWidth="1169" pageHeight="827" math="0" shadow="0">
            <root>
                <mxCell id="0"/>
                <mxCell id="1" parent="0"/>
                <mxCell id="7" value="" style="rounded=0;whiteSpace=wrap;html=1;" parent="1" vertex="1">
                    <mxGeometry x="1350" y="34" width="217.5" height="270" as="geometry"/>
                </mxCell>
                <mxCell id="8e_N3dY7H0A2S_7NYl0V-35" value="" style="rounded=0;whiteSpace=wrap;html=1;" parent="1" vertex="1">
                    <mxGeometry x="139" y="314" width="1201" height="480" as="geometry"/>
                </mxCell>
                <mxCell id="8e_N3dY7H0A2S_7NYl0V-2" value="&lt;font color=&quot;#ffffff&quot;&gt;Allow&amp;nbsp;lambda:InvokeFunction&lt;br&gt;IAM Policy&lt;/font&gt;" style="outlineConnect=0;fontColor=#232F3E;gradientColor=none;strokeColor=#232F3E;fillColor=#ffffff;dashed=0;verticalLabelPosition=bottom;verticalAlign=top;align=center;html=1;fontSize=12;fontStyle=0;aspect=fixed;shape=mxgraph.aws4.resourceIcon;resIcon=mxgraph.aws4.policy;" parent="1" vertex="1">
                    <mxGeometry x="920" y="545" width="60" height="60" as="geometry"/>
                </mxCell>
                <mxCell id="8e_N3dY7H0A2S_7NYl0V-34" value="" style="rounded=0;whiteSpace=wrap;html=1;" parent="1" vertex="1">
                    <mxGeometry x="139" y="34" width="1201" height="270" as="geometry"/>
                </mxCell>
                <mxCell id="8e_N3dY7H0A2S_7NYl0V-20" style="edgeStyle=none;rounded=0;orthogonalLoop=1;jettySize=auto;html=1;dashed=1;" parent="1" source="8e_N3dY7H0A2S_7NYl0V-2" target="8e_N3dY7H0A2S_7NYl0V-5" edge="1">
                    <mxGeometry relative="1" as="geometry"/>
                </mxCell>
                <mxCell id="8e_N3dY7H0A2S_7NYl0V-59" value="Resource&lt;br&gt;&lt;div style=&quot;color: rgb(212 , 212 , 212) ; background-color: rgb(30 , 30 , 30) ; font-family: &amp;#34;menlo&amp;#34; , &amp;#34;monaco&amp;#34; , &amp;#34;courier new&amp;#34; , monospace ; line-height: 18px ; font-size: 10px&quot;&gt;&lt;span style=&quot;color: rgb(206 , 145 , 120)&quot;&gt;&lt;font style=&quot;font-size: 10px&quot;&gt;ARN: .../*-&lt;/font&gt;&lt;/span&gt;&lt;/div&gt;&lt;div style=&quot;color: rgb(212 , 212 , 212) ; background-color: rgb(30 , 30 , 30) ; font-family: &amp;#34;menlo&amp;#34; , &amp;#34;monaco&amp;#34; , &amp;#34;courier new&amp;#34; , monospace ; line-height: 18px ; font-size: 10px&quot;&gt;&lt;span style=&quot;color: rgb(206 , 145 , 120)&quot;&gt;&lt;font style=&quot;font-size: 10px&quot;&gt;ipc-token-consume&lt;/font&gt;&lt;/span&gt;&lt;/div&gt;" style="edgeLabel;html=1;align=center;verticalAlign=middle;resizable=0;points=[];" parent="8e_N3dY7H0A2S_7NYl0V-20" vertex="1" connectable="0">
                    <mxGeometry x="-0.2896" y="-1" relative="1" as="geometry">
                        <mxPoint as="offset"/>
                    </mxGeometry>
                </mxCell>
                <mxCell id="8e_N3dY7H0A2S_7NYl0V-21" style="edgeStyle=none;rounded=0;orthogonalLoop=1;jettySize=auto;html=1;dashed=1;" parent="1" source="8e_N3dY7H0A2S_7NYl0V-2" target="8e_N3dY7H0A2S_7NYl0V-4" edge="1">
                    <mxGeometry relative="1" as="geometry"/>
                </mxCell>
                <mxCell id="8e_N3dY7H0A2S_7NYl0V-58" value="Resource&lt;br&gt;&lt;div style=&quot;color: rgb(212 , 212 , 212) ; background-color: rgb(30 , 30 , 30) ; font-family: &amp;#34;menlo&amp;#34; , &amp;#34;monaco&amp;#34; , &amp;#34;courier new&amp;#34; , monospace ; line-height: 18px ; font-size: 10px&quot;&gt;&lt;span style=&quot;color: rgb(206 , 145 , 120)&quot;&gt;&lt;font style=&quot;font-size: 10px&quot;&gt;ARN: .../*-&lt;/font&gt;&lt;/span&gt;&lt;/div&gt;&lt;div style=&quot;color: rgb(212 , 212 , 212) ; background-color: rgb(30 , 30 , 30) ; font-family: &amp;#34;menlo&amp;#34; , &amp;#34;monaco&amp;#34; , &amp;#34;courier new&amp;#34; , monospace ; line-height: 18px ; font-size: 10px&quot;&gt;&lt;span style=&quot;color: rgb(206 , 145 , 120)&quot;&gt;&lt;font style=&quot;font-size: 10px&quot;&gt;ipc-token-verify&lt;/font&gt;&lt;/span&gt;&lt;/div&gt;" style="edgeLabel;html=1;align=center;verticalAlign=middle;resizable=0;points=[];" parent="8e_N3dY7H0A2S_7NYl0V-21" vertex="1" connectable="0">
                    <mxGeometry x="0.1556" relative="1" as="geometry">
                        <mxPoint as="offset"/>
                    </mxGeometry>
                </mxCell>
                <mxCell id="8e_N3dY7H0A2S_7NYl0V-22" style="edgeStyle=none;rounded=0;orthogonalLoop=1;jettySize=auto;html=1;dashed=1;" parent="1" source="8e_N3dY7H0A2S_7NYl0V-3" target="8e_N3dY7H0A2S_7NYl0V-2" edge="1">
                    <mxGeometry relative="1" as="geometry"/>
                </mxCell>
                <mxCell id="8e_N3dY7H0A2S_7NYl0V-55" style="edgeStyle=none;rounded=0;orthogonalLoop=1;jettySize=auto;html=1;dashed=1;" parent="1" source="8e_N3dY7H0A2S_7NYl0V-3" target="8e_N3dY7H0A2S_7NYl0V-54" edge="1">
                    <mxGeometry relative="1" as="geometry"/>
                </mxCell>
                <mxCell id="8e_N3dY7H0A2S_7NYl0V-16" style="edgeStyle=none;rounded=0;orthogonalLoop=1;jettySize=auto;html=1;" parent="1" source="8e_N3dY7H0A2S_7NYl0V-4" target="8e_N3dY7H0A2S_7NYl0V-14" edge="1">
                    <mxGeometry relative="1" as="geometry"/>
                </mxCell>
                <mxCell id="8e_N3dY7H0A2S_7NYl0V-17" style="edgeStyle=none;rounded=0;orthogonalLoop=1;jettySize=auto;html=1;" parent="1" source="8e_N3dY7H0A2S_7NYl0V-5" target="8e_N3dY7H0A2S_7NYl0V-14" edge="1">
                    <mxGeometry relative="1" as="geometry"/>
                </mxCell>
                <mxCell id="8e_N3dY7H0A2S_7NYl0V-5" value="&lt;span style=&quot;color: rgb(206 , 145 , 120) ; font-family: &amp;#34;menlo&amp;#34; , &amp;#34;monaco&amp;#34; , &amp;#34;courier new&amp;#34; , monospace ; background-color: rgb(30 , 30 , 30)&quot;&gt;&amp;lt;target-environment&amp;gt;-&lt;/span&gt;&lt;div style=&quot;color: rgb(212 , 212 , 212) ; background-color: rgb(30 , 30 , 30) ; font-family: &amp;#34;menlo&amp;#34; , &amp;#34;monaco&amp;#34; , &amp;#34;courier new&amp;#34; , monospace ; line-height: 18px&quot;&gt;&lt;span style=&quot;color: #ce9178&quot;&gt;ipc-token-consume&lt;/span&gt;&lt;/div&gt;" style="outlineConnect=0;dashed=0;verticalLabelPosition=bottom;verticalAlign=top;align=center;html=1;shape=mxgraph.aws3.lambda_function;fillColor=#5294CF;gradientColor=none;" parent="1" vertex="1">
                    <mxGeometry x="1220" y="547" width="60" height="63" as="geometry"/>
                </mxCell>
                <mxCell id="8e_N3dY7H0A2S_7NYl0V-29" style="edgeStyle=none;rounded=0;orthogonalLoop=1;jettySize=auto;html=1;" parent="1" source="8e_N3dY7H0A2S_7NYl0V-6" target="8e_N3dY7H0A2S_7NYl0V-7" edge="1">
                    <mxGeometry relative="1" as="geometry"/>
                </mxCell>
                <mxCell id="8e_N3dY7H0A2S_7NYl0V-6" value="&lt;font color=&quot;#ffffff&quot;&gt;APIGWv2&lt;/font&gt;" style="outlineConnect=0;fontColor=#232F3E;gradientColor=#F54749;gradientDirection=north;fillColor=#C7131F;strokeColor=#ffffff;dashed=0;verticalLabelPosition=bottom;verticalAlign=top;align=center;html=1;fontSize=12;fontStyle=0;aspect=fixed;shape=mxgraph.aws4.resourceIcon;resIcon=mxgraph.aws4.api_gateway;" parent="1" vertex="1">
                    <mxGeometry x="290" y="545" width="61" height="61" as="geometry"/>
                </mxCell>
                <mxCell id="8e_N3dY7H0A2S_7NYl0V-15" style="rounded=0;orthogonalLoop=1;jettySize=auto;html=1;" parent="1" source="8e_N3dY7H0A2S_7NYl0V-7" target="8e_N3dY7H0A2S_7NYl0V-14" edge="1">
                    <mxGeometry relative="1" as="geometry"/>
                </mxCell>
                <mxCell id="8e_N3dY7H0A2S_7NYl0V-7" value="&lt;div style=&quot;color: rgb(212 , 212 , 212) ; background-color: rgb(30 , 30 , 30) ; font-family: &amp;#34;menlo&amp;#34; , &amp;#34;monaco&amp;#34; , &amp;#34;courier new&amp;#34; , monospace ; line-height: 18px&quot;&gt;&lt;pre style=&quot;background-color: #2b2b2b ; color: #a9b7c6 ; font-family: &amp;#34;jetbrains mono&amp;#34; , monospace ; font-size: 9.8pt&quot;&gt;IsolationPaymentOrderHandler&lt;/pre&gt;&lt;/div&gt;" style="outlineConnect=0;dashed=0;verticalLabelPosition=bottom;verticalAlign=top;align=center;html=1;shape=mxgraph.aws3.lambda_function;fillColor=#5294CF;gradientColor=none;" parent="1" vertex="1">
                    <mxGeometry x="420" y="607" width="60" height="63" as="geometry"/>
                </mxCell>
                <mxCell id="8e_N3dY7H0A2S_7NYl0V-28" style="edgeStyle=none;rounded=0;orthogonalLoop=1;jettySize=auto;html=1;" parent="1" source="8e_N3dY7H0A2S_7NYl0V-9" target="8e_N3dY7H0A2S_7NYl0V-6" edge="1">
                    <mxGeometry relative="1" as="geometry"/>
                </mxCell>
                <mxCell id="8e_N3dY7H0A2S_7NYl0V-9" value="&lt;font color=&quot;#ffffff&quot;&gt;CloudFront&lt;br&gt;Mobile Submission Distribution&lt;br&gt;(target-environment&lt;br&gt;specific FQDN)&lt;/font&gt;" style="outlineConnect=0;fontColor=#232F3E;gradientColor=#945DF2;gradientDirection=north;fillColor=#5A30B5;strokeColor=#ffffff;dashed=0;verticalLabelPosition=bottom;verticalAlign=top;align=center;html=1;fontSize=12;fontStyle=0;aspect=fixed;shape=mxgraph.aws4.resourceIcon;resIcon=mxgraph.aws4.cloudfront;" parent="1" vertex="1">
                    <mxGeometry x="185" y="546" width="61" height="61" as="geometry"/>
                </mxCell>
                <mxCell id="8e_N3dY7H0A2S_7NYl0V-18" style="edgeStyle=none;rounded=0;orthogonalLoop=1;jettySize=auto;html=1;" parent="1" source="8e_N3dY7H0A2S_7NYl0V-11" target="8e_N3dY7H0A2S_7NYl0V-4" edge="1">
                    <mxGeometry relative="1" as="geometry"/>
                </mxCell>
                <mxCell id="8e_N3dY7H0A2S_7NYl0V-40" style="edgeStyle=none;rounded=0;orthogonalLoop=1;jettySize=auto;html=1;dashed=1;" parent="1" source="8e_N3dY7H0A2S_7NYl0V-11" target="8e_N3dY7H0A2S_7NYl0V-39" edge="1">
                    <mxGeometry relative="1" as="geometry"/>
                </mxCell>
                <mxCell id="8e_N3dY7H0A2S_7NYl0V-65" style="edgeStyle=none;rounded=0;orthogonalLoop=1;jettySize=auto;html=1;" parent="1" source="8e_N3dY7H0A2S_7NYl0V-11" target="8e_N3dY7H0A2S_7NYl0V-64" edge="1">
                    <mxGeometry relative="1" as="geometry"/>
                </mxCell>
                <mxCell id="2" style="edgeStyle=orthogonalEdgeStyle;rounded=0;orthogonalLoop=1;jettySize=auto;html=1;" parent="1" source="8e_N3dY7H0A2S_7NYl0V-11" target="8e_N3dY7H0A2S_7NYl0V-5" edge="1">
                    <mxGeometry relative="1" as="geometry"/>
                </mxCell>
                <mxCell id="3" style="edgeStyle=orthogonalEdgeStyle;rounded=0;orthogonalLoop=1;jettySize=auto;html=1;" parent="1" source="8e_N3dY7H0A2S_7NYl0V-11" target="PTuPxkDtiH3rZg7_NhRp-4" edge="1">
                    <mxGeometry relative="1" as="geometry">
                        <Array as="points">
                            <mxPoint x="635" y="90"/>
                        </Array>
                    </mxGeometry>
                </mxCell>
                <mxCell id="8e_N3dY7H0A2S_7NYl0V-11" value="&lt;div style=&quot;box-sizing: border-box ; font-family: &amp;#34;segoe ui&amp;#34; , , &amp;#34;apple color emoji&amp;#34; , &amp;#34;segoe ui emoji&amp;#34; , sans-serif ; font-size: 14px&quot;&gt;&amp;lt;target-environment&amp;gt;-&lt;br&gt;sip-gateway-lambda&lt;/div&gt;" style="outlineConnect=0;dashed=0;verticalLabelPosition=bottom;verticalAlign=top;align=center;html=1;shape=mxgraph.aws3.lambda_function;fillColor=#F58534;gradientColor=none;" parent="1" vertex="1">
                    <mxGeometry x="600.5" y="110" width="69" height="72" as="geometry"/>
                </mxCell>
                <mxCell id="8e_N3dY7H0A2S_7NYl0V-27" style="edgeStyle=none;rounded=0;orthogonalLoop=1;jettySize=auto;html=1;" parent="1" source="8e_N3dY7H0A2S_7NYl0V-13" target="8e_N3dY7H0A2S_7NYl0V-9" edge="1">
                    <mxGeometry relative="1" as="geometry">
                        <mxPoint x="119.75" y="575.6535911602209" as="sourcePoint"/>
                    </mxGeometry>
                </mxCell>
                <mxCell id="PTuPxkDtiH3rZg7_NhRp-9" style="edgeStyle=orthogonalEdgeStyle;rounded=0;orthogonalLoop=1;jettySize=auto;html=1;dashed=1;" parent="1" source="8e_N3dY7H0A2S_7NYl0V-13" target="PTuPxkDtiH3rZg7_NhRp-8" edge="1">
                    <mxGeometry relative="1" as="geometry">
                        <Array as="points">
                            <mxPoint x="65" y="221"/>
                        </Array>
                    </mxGeometry>
                </mxCell>
                <mxCell id="PTuPxkDtiH3rZg7_NhRp-10" value="open in mobile browser&lt;br&gt;(ipcToken passed&lt;br&gt;as query parameter)" style="edgeLabel;html=1;align=center;verticalAlign=middle;resizable=0;points=[];" parent="PTuPxkDtiH3rZg7_NhRp-9" vertex="1" connectable="0">
                    <mxGeometry x="-0.0877" relative="1" as="geometry">
                        <mxPoint as="offset"/>
                    </mxGeometry>
                </mxCell>
                <mxCell id="8e_N3dY7H0A2S_7NYl0V-13" value="&lt;font color=&quot;#000000&quot;&gt;iOS/Android&lt;/font&gt;" style="html=1;verticalLabelPosition=bottom;align=center;labelBackgroundColor=#ffffff;verticalAlign=top;strokeWidth=2;strokeColor=#0080F0;shadow=0;dashed=0;shape=mxgraph.ios7.icons.smartphone;" parent="1" vertex="1">
                    <mxGeometry x="50" y="556.5" width="30" height="40" as="geometry"/>
                </mxCell>
                <mxCell id="8e_N3dY7H0A2S_7NYl0V-14" value="&lt;span style=&quot;color: rgb(68 , 68 , 68) ; font-family: &amp;#34;helvetica neue&amp;#34; , &amp;#34;roboto&amp;#34; , &amp;#34;arial&amp;#34; , &amp;#34;droid sans&amp;#34; , sans-serif ; font-size: 18px ; text-align: -webkit-left ; background-color: rgb(255 , 255 , 255)&quot;&gt;&amp;lt;target-environment&amp;gt;-isolation-payment-tokens&lt;/span&gt;" style="outlineConnect=0;fontColor=#232F3E;gradientColor=#4D72F3;gradientDirection=north;fillColor=#3334B9;strokeColor=#ffffff;dashed=0;verticalLabelPosition=bottom;verticalAlign=top;align=center;html=1;fontSize=12;fontStyle=0;aspect=fixed;shape=mxgraph.aws4.resourceIcon;resIcon=mxgraph.aws4.dynamodb;" parent="1" vertex="1">
                    <mxGeometry x="605" y="694" width="60" height="60" as="geometry"/>
                </mxCell>
                <mxCell id="8e_N3dY7H0A2S_7NYl0V-32" value="&lt;font color=&quot;#ffffff&quot;&gt;NHS COVID-19 App&lt;br&gt;(AWS Account)&lt;/font&gt;" style="outlineConnect=0;fontColor=#232F3E;gradientColor=none;fillColor=#C7131F;strokeColor=none;dashed=0;verticalLabelPosition=bottom;verticalAlign=top;align=center;html=1;fontSize=12;fontStyle=0;aspect=fixed;pointerEvents=1;shape=mxgraph.aws4.organizations_account;" parent="1" vertex="1">
                    <mxGeometry x="185" y="334" width="74" height="78" as="geometry"/>
                </mxCell>
                <mxCell id="8e_N3dY7H0A2S_7NYl0V-33" value="&lt;font color=&quot;#ffffff&quot;&gt;Isolation Payment Gateway&lt;br&gt;(AWS Account)&lt;/font&gt;" style="outlineConnect=0;fontColor=#232F3E;gradientColor=none;fillColor=#C7131F;strokeColor=none;dashed=0;verticalLabelPosition=bottom;verticalAlign=top;align=center;html=1;fontSize=12;fontStyle=0;aspect=fixed;pointerEvents=1;shape=mxgraph.aws4.organizations_account;" parent="1" vertex="1">
                    <mxGeometry x="1110" y="173" width="74" height="78" as="geometry"/>
                </mxCell>
                <mxCell id="8e_N3dY7H0A2S_7NYl0V-63" style="edgeStyle=none;rounded=0;orthogonalLoop=1;jettySize=auto;html=1;dashed=1;" parent="1" source="8e_N3dY7H0A2S_7NYl0V-39" target="8e_N3dY7H0A2S_7NYl0V-60" edge="1">
                    <mxGeometry relative="1" as="geometry"/>
                </mxCell>
                <mxCell id="8e_N3dY7H0A2S_7NYl0V-56" style="edgeStyle=none;rounded=0;orthogonalLoop=1;jettySize=auto;html=1;dashed=1;" parent="1" source="8e_N3dY7H0A2S_7NYl0V-54" target="8e_N3dY7H0A2S_7NYl0V-33" edge="1">
                    <mxGeometry relative="1" as="geometry"/>
                </mxCell>
                <mxCell id="8e_N3dY7H0A2S_7NYl0V-57" value="Principal&amp;nbsp;&lt;br&gt;(Account)" style="edgeLabel;html=1;align=center;verticalAlign=middle;resizable=0;points=[];" parent="8e_N3dY7H0A2S_7NYl0V-56" vertex="1" connectable="0">
                    <mxGeometry x="-0.1522" y="-3" relative="1" as="geometry">
                        <mxPoint x="36.73" y="-4.81" as="offset"/>
                    </mxGeometry>
                </mxCell>
                <mxCell id="8e_N3dY7H0A2S_7NYl0V-54" value="&lt;font color=&quot;#ffffff&quot;&gt;Allow sts:AssumeRole&lt;br&gt;Trust Policy&lt;br&gt;(OPs and Infra managed)&lt;/font&gt;&lt;font color=&quot;#ffffff&quot;&gt;&lt;br&gt;&lt;/font&gt;" style="outlineConnect=0;fontColor=#232F3E;gradientColor=none;strokeColor=#232F3E;fillColor=#ffffff;dashed=0;verticalLabelPosition=bottom;verticalAlign=top;align=center;html=1;fontSize=12;fontStyle=0;aspect=fixed;shape=mxgraph.aws4.resourceIcon;resIcon=mxgraph.aws4.policy;" parent="1" vertex="1">
                    <mxGeometry x="1117" y="394" width="60" height="60" as="geometry"/>
                </mxCell>
                <mxCell id="8e_N3dY7H0A2S_7NYl0V-61" style="edgeStyle=none;rounded=0;orthogonalLoop=1;jettySize=auto;html=1;dashed=1;" parent="1" source="8e_N3dY7H0A2S_7NYl0V-60" target="8e_N3dY7H0A2S_7NYl0V-3" edge="1">
                    <mxGeometry relative="1" as="geometry"/>
                </mxCell>
                <mxCell id="8e_N3dY7H0A2S_7NYl0V-62" value="Resource&amp;nbsp;" style="edgeLabel;html=1;align=center;verticalAlign=middle;resizable=0;points=[];" parent="8e_N3dY7H0A2S_7NYl0V-61" vertex="1" connectable="0">
                    <mxGeometry x="0.1603" y="1" relative="1" as="geometry">
                        <mxPoint x="-51.209999999999994" as="offset"/>
                    </mxGeometry>
                </mxCell>
                <mxCell id="8e_N3dY7H0A2S_7NYl0V-60" value="&lt;font color=&quot;#ffffff&quot;&gt;Allow sts:AssumeRole&lt;br&gt;IAM Policy&lt;/font&gt;" style="outlineConnect=0;fontColor=#232F3E;gradientColor=none;strokeColor=#232F3E;fillColor=#ffffff;dashed=0;verticalLabelPosition=bottom;verticalAlign=top;align=center;html=1;fontSize=12;fontStyle=0;aspect=fixed;shape=mxgraph.aws4.resourceIcon;resIcon=mxgraph.aws4.policy;" parent="1" vertex="1">
                    <mxGeometry x="920" y="210" width="60" height="60" as="geometry"/>
                </mxCell>
                <mxCell id="8e_N3dY7H0A2S_7NYl0V-64" value="&lt;font color=&quot;#ffffff&quot; style=&quot;background-color: rgb(0 , 0 , 0)&quot;&gt;AWS STS&lt;/font&gt;" style="outlineConnect=0;fontColor=#232F3E;gradientColor=none;strokeColor=#232F3E;fillColor=#ffffff;dashed=0;verticalLabelPosition=bottom;verticalAlign=top;align=center;html=1;fontSize=12;fontStyle=0;aspect=fixed;shape=mxgraph.aws4.resourceIcon;resIcon=mxgraph.aws4.sts;" parent="1" vertex="1">
                    <mxGeometry x="480" y="69" width="60" height="60" as="geometry"/>
                </mxCell>
                <mxCell id="PTuPxkDtiH3rZg7_NhRp-4" value="" style="shape=image;html=1;verticalAlign=top;verticalLabelPosition=bottom;labelBackgroundColor=#ffffff;imageAspect=0;aspect=fixed;image=https://cdn2.iconfinder.com/data/icons/amazon-aws-stencils/100/App_Services_copy_Amazon_SQS_Queue-128.png" parent="1" vertex="1">
                    <mxGeometry x="1410" y="56" width="68" height="68" as="geometry"/>
                </mxCell>
                <mxCell id="PTuPxkDtiH3rZg7_NhRp-12" style="edgeStyle=orthogonalEdgeStyle;rounded=0;orthogonalLoop=1;jettySize=auto;html=1;" parent="1" source="PTuPxkDtiH3rZg7_NhRp-5" target="PTuPxkDtiH3rZg7_NhRp-4" edge="1">
                    <mxGeometry relative="1" as="geometry"/>
                </mxCell>
                <mxCell id="PTuPxkDtiH3rZg7_NhRp-5" value="CTAS" style="outlineConnect=0;dashed=0;verticalLabelPosition=bottom;verticalAlign=top;align=center;html=1;shape=mxgraph.aws3.traditional_server;fillColor=#7D7C7C;gradientColor=none;" parent="1" vertex="1">
                    <mxGeometry x="1500" y="65" width="40" height="50" as="geometry"/>
                </mxCell>
                <mxCell id="6" style="edgeStyle=none;rounded=0;orthogonalLoop=1;jettySize=auto;html=1;" parent="1" source="PTuPxkDtiH3rZg7_NhRp-8" target="4" edge="1">
                    <mxGeometry relative="1" as="geometry"/>
                </mxCell>
                <mxCell id="PTuPxkDtiH3rZg7_NhRp-8" value="&lt;font color=&quot;#ffffff&quot;&gt;CloudFront&lt;br&gt;Website Distribution&lt;/font&gt;" style="outlineConnect=0;fontColor=#232F3E;gradientColor=#945DF2;gradientDirection=north;fillColor=#5A30B5;strokeColor=#ffffff;dashed=0;verticalLabelPosition=bottom;verticalAlign=top;align=center;html=1;fontSize=12;fontStyle=0;aspect=fixed;shape=mxgraph.aws4.resourceIcon;resIcon=mxgraph.aws4.cloudfront;" parent="1" vertex="1">
                    <mxGeometry x="180" y="190" width="61" height="61" as="geometry"/>
                </mxCell>
                <mxCell id="8e_N3dY7H0A2S_7NYl0V-4" value="&lt;div style=&quot;color: rgb(212 , 212 , 212) ; background-color: rgb(30 , 30 , 30) ; font-family: &amp;#34;menlo&amp;#34; , &amp;#34;monaco&amp;#34; , &amp;#34;courier new&amp;#34; , monospace ; line-height: 18px&quot;&gt;&lt;span style=&quot;color: #ce9178&quot;&gt;&amp;lt;target-environment&amp;gt;-&lt;/span&gt;&lt;/div&gt;&lt;div style=&quot;color: rgb(212 , 212 , 212) ; background-color: rgb(30 , 30 , 30) ; font-family: &amp;#34;menlo&amp;#34; , &amp;#34;monaco&amp;#34; , &amp;#34;courier new&amp;#34; , monospace ; line-height: 18px&quot;&gt;&lt;span style=&quot;color: #ce9178&quot;&gt;ipc-token-verify&lt;/span&gt;&lt;/div&gt;" style="outlineConnect=0;dashed=0;verticalLabelPosition=bottom;verticalAlign=top;align=center;html=1;shape=mxgraph.aws3.lambda_function;fillColor=#5294CF;gradientColor=none;" parent="1" vertex="1">
                    <mxGeometry x="605" y="545" width="60" height="63" as="geometry"/>
                </mxCell>
                <mxCell id="PTuPxkDtiH3rZg7_NhRp-11" value="&lt;font color=&quot;#ffffff&quot;&gt;Audit Logs&lt;br&gt;(CloudWatch Logs atm)&lt;br&gt;&lt;/font&gt;" style="outlineConnect=0;fontColor=#232F3E;gradientColor=#F34482;gradientDirection=north;fillColor=#BC1356;strokeColor=#ffffff;dashed=0;verticalLabelPosition=bottom;verticalAlign=top;align=center;html=1;fontSize=12;fontStyle=0;aspect=fixed;shape=mxgraph.aws4.resourceIcon;resIcon=mxgraph.aws4.cloudwatch_2;" parent="1" vertex="1">
                    <mxGeometry x="1221" y="680" width="58" height="58" as="geometry"/>
                </mxCell>
                <mxCell id="8e_N3dY7H0A2S_7NYl0V-3" value="&lt;div style=&quot;color: rgb(212 , 212 , 212) ; background-color: rgb(30 , 30 , 30) ; font-family: &amp;#34;menlo&amp;#34; , &amp;#34;monaco&amp;#34; , &amp;#34;courier new&amp;#34; , monospace ; line-height: 18px&quot;&gt;&lt;span style=&quot;color: #ce9178&quot;&gt;&lt;font style=&quot;font-size: 7px&quot;&gt;role/isolation-payment-gateway&lt;br&gt;(OPs and Infra managed)&lt;/font&gt;&lt;/span&gt;&lt;/div&gt;" style="outlineConnect=0;fontColor=#232F3E;gradientColor=none;strokeColor=#232F3E;fillColor=#ffffff;dashed=0;verticalLabelPosition=bottom;verticalAlign=top;align=center;html=1;fontSize=12;fontStyle=0;aspect=fixed;shape=mxgraph.aws4.resourceIcon;resIcon=mxgraph.aws4.role;" parent="1" vertex="1">
                    <mxGeometry x="920" y="394" width="60" height="60" as="geometry"/>
                </mxCell>
                <mxCell id="8e_N3dY7H0A2S_7NYl0V-39" value="&lt;div style=&quot;color: rgb(212 , 212 , 212) ; background-color: rgb(30 , 30 , 30) ; font-family: &amp;#34;menlo&amp;#34; , &amp;#34;monaco&amp;#34; , &amp;#34;courier new&amp;#34; , monospace ; line-height: 18px&quot;&gt;&lt;span style=&quot;color: #ce9178&quot;&gt;&lt;font style=&quot;font-size: 7px&quot;&gt;role/&amp;lt;target-environment&amp;gt;-&lt;/font&gt;&lt;/span&gt;&lt;span style=&quot;color: rgb(206 , 145 , 120) ; font-family: &amp;#34;menlo&amp;#34; , &amp;#34;monaco&amp;#34; , &amp;#34;courier new&amp;#34; , monospace&quot;&gt;sip-gateway-lambda&lt;/span&gt;&lt;/div&gt;" style="outlineConnect=0;fontColor=#232F3E;gradientColor=none;strokeColor=#232F3E;fillColor=#ffffff;dashed=0;verticalLabelPosition=bottom;verticalAlign=top;align=center;html=1;fontSize=12;fontStyle=0;aspect=fixed;shape=mxgraph.aws4.resourceIcon;resIcon=mxgraph.aws4.role;" parent="1" vertex="1">
                    <mxGeometry x="730" y="210" width="60" height="60" as="geometry"/>
                </mxCell>
                <mxCell id="5" style="rounded=0;orthogonalLoop=1;jettySize=auto;html=1;" parent="1" source="4" target="8e_N3dY7H0A2S_7NYl0V-11" edge="1">
                    <mxGeometry relative="1" as="geometry"/>
                </mxCell>
                <mxCell id="4" value="&lt;font color=&quot;#ffffff&quot;&gt;APIGWv2&lt;/font&gt;" style="outlineConnect=0;fontColor=#232F3E;gradientColor=#F54749;gradientDirection=north;fillColor=#C7131F;strokeColor=#ffffff;dashed=0;verticalLabelPosition=bottom;verticalAlign=top;align=center;html=1;fontSize=12;fontStyle=0;aspect=fixed;shape=mxgraph.aws4.resourceIcon;resIcon=mxgraph.aws4.api_gateway;" parent="1" vertex="1">
                    <mxGeometry x="290.5" y="191" width="60" height="60" as="geometry"/>
                </mxCell>
                <mxCell id="8" value="&lt;font color=&quot;#ffffff&quot;&gt;CTAS&lt;br&gt;(AWS Account)&lt;/font&gt;" style="outlineConnect=0;fontColor=#232F3E;gradientColor=none;fillColor=#C7131F;strokeColor=none;dashed=0;verticalLabelPosition=bottom;verticalAlign=top;align=center;html=1;fontSize=12;fontStyle=0;aspect=fixed;pointerEvents=1;shape=mxgraph.aws4.organizations_account;" parent="1" vertex="1">
                    <mxGeometry x="1421.75" y="173" width="74" height="78" as="geometry"/>
                </mxCell>
            </root>
        </mxGraphModel>
    </diagram>
</mxfile>